<?xml version="1.0" encoding="UTF-8"?>
<svg xmlns="http://www.w3.org/2000/svg" xmlns:xlink="http://www.w3.org/1999/xlink" viewBox="0 0 240 240" width="240px" height="240px">
<g id="surface28858163">
<path style=" stroke:none;fill-rule:nonzero;fill:rgb(100%,74.509805%,5.490196%);fill-opacity:1;" d="M 120 24 C 66.984375 24 24 66.984375 24 120 C 24 168.128906 59.457031 207.871094 105.648438 214.816406 L 105.648438 145.441406 L 81.894531 145.441406 L 81.894531 120.207031 L 105.648438 120.207031 L 105.648438 103.414062 C 105.648438 75.617188 119.191406 63.414062 142.296875 63.414062 C 153.359375 63.414062 159.214844 64.238281 161.984375 64.609375 L 161.984375 86.632812 L 146.222656 86.632812 C 136.414062 86.632812 132.992188 95.9375 132.992188 106.414062 L 132.992188 120.207031 L 161.734375 120.207031 L 157.839844 145.441406 L 132.992188 145.441406 L 132.992188 215.015625 C 179.847656 208.664062 216 168.601562 216 120 C 216 66.984375 173.015625 24 120 24 Z M 120 24 "/>
</g>
</svg>
